<svg width="157" height="180" viewBox="0 0 157 180" fill="none" xmlns="http://www.w3.org/2000/svg">
<path d="M36.1458 150.663V167.66C38.4777 168.123 42.2348 168.52 48.0647 168.52C58.6881 168.52 68.7285 166.139 77.9916 161.443C87.3195 156.748 95.6757 149.869 102.996 140.941L105.651 137.7L108.113 141.073C114.72 150.134 121.263 158.732 127.611 166.668H150.412C137.457 151.457 125.862 137.435 115.951 124.869L114.591 123.215L115.562 121.297C125.667 101.456 130.85 77.8447 130.85 50.9926C130.85 32.4077 127.805 19.0478 121.716 11.3096C115.757 3.70374 107.595 0 96.777 0C85.9592 0 77.2143 3.43919 71.5787 10.4498C65.8136 17.5266 62.9634 28.6378 62.9634 43.4528C62.9634 51.8524 63.7407 59.5905 65.3601 66.4028C66.9148 73.2811 69.8298 80.9532 74.0403 89.2866C78.3155 97.6861 84.5989 108.004 92.7608 119.776L94.0563 121.628L92.8256 123.546C86.9309 132.475 79.6758 139.353 71.3844 143.983C63.0282 148.613 53.7003 150.994 43.6599 150.994C41.004 150.994 38.4777 150.861 36.2105 150.729L36.1458 150.663ZM84.7284 71.4954C82.5908 63.625 81.4896 54.4317 81.4896 44.1142C81.4896 34.3919 82.6556 27.8442 85.1171 23.942C87.773 19.7753 91.8539 17.5266 96.777 17.5266C100.404 17.5266 105.392 19.0478 108.242 26.1907C110.186 31.0188 111.157 39.1538 111.157 50.9264C111.157 68.6515 108.825 84.9876 104.291 99.4057L102.153 106.086L98.4612 100.133C91.4652 88.9559 86.8661 79.2997 84.6637 71.4293L84.7284 71.4954Z" fill="#B0FF34"/>
<path d="M37.5706 151.39V148.48C37.5706 148.48 28.5666 146.893 27.9836 148.48C27.4006 150.068 25.3277 177.317 27.0767 178.242C28.8257 179.168 36.6637 180.954 38.4127 179.168C40.1616 177.383 41.8458 173.084 40.2912 171.893C38.7365 170.703 35.8216 156.417 37.6353 151.39H37.5706Z" fill="#B0FF34"/>
<path d="M125.084 158.335H121.91C121.91 158.335 120.097 168.454 121.781 169.181C123.465 169.909 153.133 172.554 154.169 170.57C155.206 168.586 157.214 159.724 155.335 157.739C153.457 155.755 148.793 153.771 147.432 155.557C146.072 157.343 130.526 160.451 125.149 158.269L125.084 158.335Z" fill="#B0FF34"/>
<path d="M25.911 137.171C17.2957 136.708 13.4738 124.737 18.2673 118.057C21.0527 125.729 21.5709 130.292 25.911 137.171Z" fill="black"/>
<path d="M22.0889 143.586C18.008 145.769 13.2145 144.975 9.2631 143.388C5.31171 141.536 1.81375 138.626 0 134.393C4.34005 135.649 7.70845 137.303 11.2064 138.824L22.0889 143.586Z" fill="black"/>
<path d="M22.5426 153.507C15.9354 156.086 10.4293 156.88 3.56299 154.697C9.00425 150.134 16.6479 149.274 22.5426 153.507Z" fill="black"/>
</svg>
