<svg width="254" height="147" viewBox="0 0 254 147" fill="none" xmlns="http://www.w3.org/2000/svg">
<g clip-path="url(#clip0_9_200)">
<path d="M26.3101 107.605V119.745C28.0075 120.075 30.7422 120.359 34.9858 120.359C42.7185 120.359 50.0268 118.658 56.7693 115.304C63.559 111.951 69.6414 107.038 74.9694 100.661L76.9026 98.3464L78.6943 100.755C83.5037 107.227 88.2659 113.368 92.8866 119.036H109.484C100.054 108.172 91.6136 98.1574 84.3995 89.1825L83.4094 88.0016L84.1166 86.6317C91.4721 72.4608 95.2442 55.5974 95.2442 36.4193C95.2442 23.1459 93.0281 13.6041 88.5959 8.07744C84.2581 2.64524 78.3171 0 70.443 0C62.5688 0 56.2035 2.4563 52.1014 7.46337C47.905 12.5177 45.8304 20.4534 45.8304 31.0344C45.8304 37.0334 46.3962 42.5601 47.575 47.4254C48.7066 52.338 50.8283 57.8175 53.8931 63.7693C57.0051 69.7683 61.5787 77.1372 67.5196 85.5453L68.4627 86.8679L67.5668 88.2378C63.2761 94.6147 57.9952 99.5273 51.96 102.834C45.8775 106.14 39.0879 107.841 31.7795 107.841C29.8463 107.841 28.0075 107.746 26.3572 107.652L26.3101 107.605ZM61.673 51.0627C60.117 45.4415 59.3154 38.8756 59.3154 31.5067C59.3154 24.563 60.1642 19.8866 61.9559 17.0996C63.889 14.1237 66.8595 12.5177 70.443 12.5177C73.0834 12.5177 76.714 13.6041 78.7886 18.7057C80.2031 22.1539 80.9104 27.964 80.9104 36.3721C80.9104 49.0315 79.213 60.6989 75.9124 70.9965L74.3565 75.7673L71.6689 71.5161C66.5766 63.5331 63.2289 56.6366 61.6258 51.0154L61.673 51.0627Z" fill="#B0FF34"/>
<path d="M27.3472 108.124V106.046C27.3472 106.046 20.7933 104.912 20.3689 106.046C19.9446 107.18 18.4358 126.641 19.7088 127.302C20.9819 127.964 26.6871 129.239 27.9602 127.964C29.2332 126.688 30.4592 123.618 29.3275 122.768C28.1959 121.917 26.0742 111.714 27.3944 108.124H27.3472Z" fill="#9DE828"/>
<path d="M91.0477 113.084H88.7373C88.7373 113.084 87.4171 120.311 88.643 120.831C89.8689 121.351 111.464 123.24 112.218 121.823C112.973 120.406 114.434 114.076 113.067 112.659C111.7 111.242 108.305 109.825 107.315 111.1C106.324 112.376 95.0083 114.596 91.0948 113.037L91.0477 113.084Z" fill="#9DE828"/>
<path d="M18.8602 97.9685C12.5891 97.6378 9.80726 89.088 13.2964 84.3171C15.3239 89.7966 15.7011 93.0559 18.8602 97.9685Z" fill="black"/>
<path d="M16.0783 102.55C13.1079 104.109 9.61871 103.542 6.74253 102.409C3.86634 101.086 1.32022 99.0078 0 95.9846C3.15909 96.8821 5.61091 98.063 8.15704 99.1495L16.0783 102.55Z" fill="black"/>
<path d="M16.4084 109.636C11.599 111.478 7.59122 112.045 2.59326 110.486C6.55391 107.227 12.1177 106.613 16.4084 109.636Z" fill="black"/>
<path d="M49.8382 58.9512C52.3843 57.3451 55.9206 56.5421 60.4942 56.5421C62.8989 56.5421 65.115 56.7311 67.0953 57.0617C69.0756 57.3924 70.5844 57.7703 71.6689 58.1482V64.1472C70.5373 63.7221 69.0284 63.3442 67.0953 63.0135C65.1621 62.6829 63.0403 62.4939 60.6357 62.4939C55.4019 62.4939 52.7615 63.5804 52.7615 65.706C52.7615 66.5563 53.1859 67.1231 54.0817 67.501C54.9304 67.8789 56.2507 68.1151 57.9952 68.2095L63.7004 68.4929C67.331 68.7764 70.0658 69.4849 71.9518 70.7131C73.8378 71.9412 74.7808 73.8307 74.7808 76.4759C74.7808 79.5463 73.5078 81.8609 70.9145 83.3724C68.3212 84.884 64.6434 85.687 59.7869 85.687C57.0522 85.687 54.6004 85.4509 52.4315 85.0257C50.2625 84.5534 48.6594 84.1282 47.6221 83.6559V77.6568C48.8009 78.1292 50.404 78.6016 52.5258 79.0267C54.6004 79.4518 57.0051 79.688 59.6926 79.688C65.3036 79.688 68.1326 78.6016 68.1326 76.4759C68.1326 75.5784 67.6611 74.9643 66.7652 74.6337C65.8694 74.303 64.5491 74.1141 62.8517 73.9724L57.2408 73.689C53.5631 73.4528 50.8283 72.7442 48.9423 71.4688C47.0563 70.2407 46.1133 68.304 46.1133 65.706C46.1133 62.7773 47.3863 60.4627 49.8853 58.8567L49.8382 58.9512Z" fill="black"/>
<path d="M84.7767 83.9393C82.6078 82.7111 80.9575 81.0106 79.7788 78.7905C78.6 76.5704 78.0342 74.0196 78.0342 71.1854C78.0342 68.3512 78.6 65.7532 79.7788 63.5804C80.9575 61.3602 82.6078 59.6597 84.7767 58.4316C86.9456 57.2034 89.4446 56.5894 92.3208 56.5894C95.197 56.5894 97.696 57.2034 99.8649 58.4316C102.034 59.6597 103.731 61.3602 104.91 63.5804C106.089 65.8005 106.702 68.3512 106.702 71.1854C106.702 74.0196 106.089 76.6176 104.91 78.7905C103.731 81.0106 102.034 82.7111 99.8649 83.9393C97.696 85.1674 95.197 85.7815 92.3208 85.7815C89.4446 85.7815 86.9456 85.1674 84.7767 83.9393ZM98.1203 77.4207C99.3934 75.8618 100.006 73.7834 100.006 71.1382C100.006 68.493 99.3934 66.4618 98.1203 64.8557C96.8472 63.2969 94.9141 62.4939 92.3208 62.4939C89.7275 62.4939 87.7943 63.2969 86.5684 64.8557C85.3425 66.4145 84.6824 68.493 84.6824 71.1382C84.6824 73.7834 85.2954 75.8146 86.5684 77.4207C87.8415 79.0267 89.7275 79.7825 92.3208 79.7825C94.9141 79.7825 96.8472 78.9795 98.1203 77.4207Z" fill="black"/>
<path d="M140.65 79.499V85.4036C139.99 85.687 139 85.7814 137.632 85.7814C135.605 85.7814 133.672 85.3563 131.88 84.4588C130.088 83.6086 128.627 82.2387 127.542 80.4437C126.458 78.6487 125.892 76.3814 125.892 73.6417C125.892 69.9572 127.071 66.509 129.475 63.2024V62.919H119.857C119.432 66.8396 118.914 70.5241 118.348 73.9723C117.782 77.4206 117.028 81.1995 116.179 85.3091H108.305C109.672 81.0106 110.851 76.7593 111.794 72.508C112.737 68.2567 113.444 64.5723 113.774 61.3602C112.925 60.8878 112.218 60.1793 111.7 59.329C111.181 58.4787 110.945 57.4868 110.945 56.4003C110.945 54.8415 111.511 53.5661 112.595 52.5269C113.727 51.4877 115.283 50.9681 117.263 50.9681C118.301 50.9681 119.338 51.0626 120.375 51.2516C120.375 53.1883 120.328 55.0777 120.187 56.9672H136.878V62.919C135.652 63.7692 134.615 64.9974 133.766 66.6034C132.917 68.2095 132.54 69.9572 132.54 71.9411C132.54 74.4919 133.106 76.3814 134.285 77.704C135.416 79.0266 136.972 79.6407 138.858 79.6407C139.471 79.6407 140.037 79.5935 140.603 79.4517L140.65 79.499Z" fill="black"/>
<path d="M155.267 63.0135V71.894C155.267 73.7835 155.503 75.295 155.927 76.3815C156.351 77.5152 157.153 78.3182 158.332 78.885C159.51 79.4519 161.161 79.7353 163.33 79.7353C164.555 79.7353 165.829 79.6408 167.243 79.4991C168.658 79.3574 169.695 79.1684 170.449 79.0267V84.7896C169.836 84.9785 168.752 85.1675 167.196 85.4036C165.64 85.6398 164.225 85.7343 162.999 85.7343C159.888 85.7343 157.247 85.3092 155.172 84.5062C153.098 83.7031 151.448 82.286 150.316 80.2549C149.184 78.2237 148.619 75.4367 148.619 71.8468V62.9663H140.697V56.9673H148.619V49.5039H155.314V56.9673H171.204V62.9663H155.314L155.267 63.0135Z" fill="black"/>
<path d="M204.02 79.4045V85.0729C203.549 85.2146 202.936 85.4036 202.087 85.5453C201.239 85.7342 200.343 85.7815 199.4 85.7815C195.816 85.7815 192.893 84.9312 190.677 83.2307C188.461 81.5302 186.811 79.1683 185.773 76.1924C184.359 78.8849 182.331 81.9081 179.785 85.3091H172.194C176.249 79.8769 179.125 75.8618 180.822 73.2165C182.52 70.6185 183.699 68.0678 184.406 65.6115V56.92H191.101V66.7451C191.101 75.3894 194.072 79.7352 200.06 79.7352C201.663 79.7352 203.03 79.5935 204.068 79.3573L204.02 79.4045ZM183.887 51.0626C182.944 50.3068 182.473 49.3149 182.473 47.9923C182.473 46.5752 182.944 45.536 183.887 44.8274C184.83 44.1189 186.103 43.741 187.754 43.741C189.404 43.741 190.677 44.1189 191.62 44.8274C192.563 45.536 193.034 46.6224 193.034 47.9923C193.034 49.3149 192.563 50.3541 191.62 51.0626C190.677 51.8184 189.404 52.1491 187.754 52.1491C186.103 52.1491 184.83 51.7712 183.887 51.0626Z" fill="black"/>
<path d="M234.574 73.7362H212.79C213.168 75.8619 214.111 77.3734 215.62 78.3654C217.128 79.3574 219.344 79.8297 222.315 79.8297C226.134 79.8297 229.623 79.3574 232.782 78.3654V84.3172C229.482 85.3564 225.945 85.8288 222.221 85.8288C216.657 85.8288 212.555 84.5061 209.914 81.9081C207.274 79.3101 205.906 75.7201 205.906 71.2327C205.906 66.4618 207.274 62.8246 210.056 60.3683C212.838 57.8647 216.468 56.6366 220.995 56.6366C225.238 56.6366 228.586 57.7703 230.991 60.0849C233.395 62.3522 234.574 65.8005 234.574 70.3352V73.8307V73.7362ZM228.114 68.7764C228.114 64.6196 225.757 62.5412 220.995 62.5412C218.684 62.5412 216.845 63.0135 215.431 63.911C214.016 64.8557 213.121 66.4618 212.743 68.7764H228.114Z" fill="black"/>
<path d="M140.32 116.533V122.248C139.471 122.532 138.34 122.72 136.925 122.72C134.332 122.72 132.493 122.012 131.456 120.595C130.419 119.178 129.9 117.241 129.9 114.738V104.723C129.9 103.023 129.523 101.747 128.815 100.85C128.108 99.9525 126.694 99.5274 124.572 99.5274C121.601 99.5274 119.621 100.756 118.678 103.259V122.295H111.983V93.9534H115.99L118.065 98.7243H118.348C119.291 95.2288 122.026 93.5283 126.505 93.5283C130.183 93.5283 132.729 94.4258 134.238 96.268C135.747 98.1103 136.501 100.567 136.501 103.731V113.746C136.501 114.738 136.642 115.493 136.878 115.966C137.161 116.485 137.727 116.721 138.623 116.721C138.906 116.721 139.424 116.674 140.226 116.533H140.32Z" fill="black"/>
<path d="M168.563 93.9534V121.729C168.563 126.027 167.243 129.286 164.65 131.412C162.056 133.585 158.52 134.624 154.088 134.624C152.721 134.624 151.165 134.482 149.467 134.152C147.77 133.821 146.261 133.49 145.035 133.018V126.736C148.006 127.964 150.976 128.625 153.852 128.625C159.227 128.625 161.868 126.31 161.868 121.729V121.634L162.528 117.194H162.151C161.585 119.225 160.689 120.689 159.51 121.492C158.331 122.295 156.776 122.72 154.842 122.72C152.202 122.72 149.892 122.106 147.958 120.925C146.025 119.697 144.516 117.997 143.479 115.824C142.442 113.651 141.923 111.1 141.923 108.266C141.923 105.29 142.489 102.692 143.621 100.425C144.752 98.2047 146.308 96.457 148.288 95.2761C150.269 94.0951 152.485 93.4811 154.889 93.4811C159.133 93.4811 161.585 95.2288 162.292 98.6771H162.622L164.272 93.9062H168.516L168.563 93.9534ZM161.868 113.887V102.173C161.208 101.181 160.453 100.519 159.51 100.094C158.567 99.7163 157.483 99.4801 156.257 99.4801C153.899 99.4801 152.013 100.236 150.646 101.795C149.279 103.306 148.618 105.479 148.618 108.219C148.618 110.959 149.279 112.943 150.552 114.454C151.825 115.966 153.711 116.721 156.163 116.721C158.614 116.721 160.5 115.777 161.868 113.887Z" fill="black"/>
<path d="M204.256 116.532V122.248C203.973 122.343 203.502 122.484 202.889 122.579C202.276 122.673 201.616 122.72 200.909 122.72C197.184 122.72 194.92 120.925 194.166 117.335H193.977C193.223 120.925 190.724 122.72 186.528 122.72C183.18 122.72 180.587 121.728 178.748 119.697C176.909 117.713 176.013 114.785 176.013 111.006V99.9052H172.147V93.9061H182.661V109.683C182.661 112.139 183.039 113.934 183.84 115.021C184.594 116.155 186.15 116.674 188.414 116.674C189.64 116.674 190.771 116.343 191.714 115.729C192.657 115.068 193.412 114.123 193.93 112.895V93.9061H200.626V113.698C200.626 114.69 200.767 115.446 201.097 115.918C201.427 116.391 201.993 116.674 202.842 116.674C203.266 116.674 203.738 116.627 204.303 116.485L204.256 116.532Z" fill="black"/>
<path d="M234.574 110.675H212.79C213.168 112.801 214.111 114.312 215.62 115.304C217.128 116.296 219.344 116.769 222.315 116.769C226.134 116.769 229.623 116.296 232.782 115.304V121.256C229.482 122.295 225.945 122.768 222.221 122.768C216.657 122.768 212.555 121.445 209.914 118.847C207.274 116.249 205.906 112.659 205.906 108.172C205.906 103.401 207.274 99.7635 210.056 97.3072C212.838 94.8037 216.468 93.5756 220.995 93.5756C225.238 93.5756 228.586 94.7092 230.991 97.0238C233.395 99.2912 234.574 102.739 234.574 107.274V110.77V110.675ZM228.114 105.715C228.114 101.559 225.757 99.4801 220.995 99.4801C218.684 99.4801 216.845 99.9525 215.431 100.85C214.016 101.795 213.121 103.401 212.743 105.715H228.114Z" fill="black"/>
<path d="M84.7767 120.878C82.6078 119.65 80.9575 117.95 79.7788 115.729C78.6 113.509 78.0342 110.959 78.0342 108.124C78.0342 105.29 78.6 102.692 79.7788 100.519C80.9575 98.2992 82.6078 96.5987 84.7767 95.3706C86.9456 94.1424 89.4446 93.5283 92.3208 93.5283C95.197 93.5283 97.696 94.1424 99.8649 95.3706C102.034 96.5987 103.731 98.2992 104.91 100.519C106.089 102.739 106.702 105.29 106.702 108.124C106.702 110.959 106.089 113.557 104.91 115.729C103.731 117.95 102.034 119.65 99.8649 120.878C97.696 122.106 95.197 122.72 92.3208 122.72C89.4446 122.72 86.9456 122.106 84.7767 120.878ZM98.1203 114.36C99.3934 112.801 100.006 110.722 100.006 108.077C100.006 105.432 99.3934 103.401 98.1203 101.795C96.8472 100.236 94.9141 99.4329 92.3208 99.4329C89.7275 99.4329 87.7943 100.236 86.5684 101.795C85.3425 103.354 84.6824 105.432 84.6824 108.077C84.6824 110.722 85.2954 112.754 86.5684 114.36C87.8415 115.966 89.7275 116.721 92.3208 116.721C94.9141 116.721 96.8472 115.918 98.1203 114.36Z" fill="black"/>
<path d="M190.111 129.853C193.553 129.995 197.136 130.184 200.767 130.326C203.03 130.42 205.293 130.562 207.557 130.656C210.763 130.751 213.969 130.845 217.175 130.751C223.305 130.656 229.387 129.948 235.234 127.633C240.138 125.696 244.711 122.957 248.672 118.705C249.709 117.572 250.699 116.296 251.69 115.068C251.878 114.832 252.02 114.643 252.208 114.407C252.727 113.84 253.151 113.887 253.434 114.69C253.717 115.588 253.953 116.532 254 117.43C254.283 123.901 252.774 129.617 249.285 134.293C244.381 140.907 238.252 144.685 231.321 146.339C228.209 147.095 225.05 147.047 221.89 146.764C219.816 146.575 217.741 146.48 215.714 146.15C212.838 145.725 209.961 145.205 207.085 144.638C203.313 143.882 199.541 143.032 195.722 142.276C192.469 141.662 189.262 141.095 186.009 140.623C184.123 140.34 182.237 140.151 180.351 140.009C177.522 139.867 174.74 139.678 171.911 139.726C168.799 139.773 165.734 140.292 162.811 141.521C161.915 141.898 161.113 142.465 160.218 142.89C160.076 142.985 159.887 142.938 159.699 142.985C159.699 142.702 159.605 142.418 159.699 142.182C159.84 141.851 160.029 141.568 160.265 141.284C163.377 137.364 167.054 134.766 171.204 133.018C174.598 131.601 178.088 130.703 181.624 130.42C184.359 130.184 187.141 129.995 190.064 129.759L190.111 129.853Z" fill="black"/>
<path d="M190.913 132.498C192.657 132.404 193.647 132.215 195.392 132.262C195.392 132.687 195.392 132.924 195.392 133.396C194.119 133.349 193.412 133.396 192.091 133.49C192.091 134.152 192.091 134.482 192.091 135.191C193.317 135.191 193.93 135.191 195.203 135.238C195.203 135.663 195.203 135.899 195.203 136.325C193.93 136.277 193.317 136.23 192.091 136.183C192.091 136.939 192.091 137.317 192.091 138.072C193.459 138.214 194.166 138.261 195.533 138.403C195.533 138.875 195.533 139.064 195.533 139.537C193.695 139.3 192.752 139.206 190.865 139.017V132.546L190.913 132.498Z" fill="white"/>
<path d="M196.948 132.357C197.561 132.357 197.891 132.357 198.504 132.404C199.777 134.719 200.437 135.899 201.71 138.403C201.71 136.041 201.71 134.86 201.71 132.546C202.181 132.546 202.417 132.546 202.936 132.593C202.936 135.805 202.936 137.411 202.936 140.576C202.323 140.481 202.04 140.434 201.427 140.34C200.154 137.742 199.494 136.466 198.174 134.104C198.174 136.419 198.174 137.553 198.221 139.867C197.749 139.82 197.514 139.773 197.042 139.678C197.042 136.75 197.042 135.285 196.995 132.309L196.948 132.357Z" fill="white"/>
<path d="M209.301 132.829C209.726 132.829 209.914 132.829 210.339 132.829C211.517 136.419 212.083 138.261 213.215 142.135C212.649 142.04 212.413 142.04 211.847 141.946C211.612 141.095 211.47 140.67 211.234 139.773C210.056 139.631 209.49 139.584 208.311 139.395C208.075 140.151 207.934 140.529 207.698 141.284C207.179 141.19 206.897 141.143 206.378 141.048C207.557 137.883 208.122 136.23 209.301 132.735V132.829ZM210.857 138.403C210.433 136.891 210.244 136.183 209.82 134.719C209.396 136.136 209.16 136.844 208.735 138.214C209.584 138.309 210.009 138.356 210.81 138.45L210.857 138.403Z" fill="white"/>
<path d="M214.205 132.923C214.676 132.923 214.912 132.923 215.384 132.923C215.384 136.136 215.384 137.742 215.384 140.906C216.515 141.048 217.128 141.095 218.26 141.143C218.26 141.757 218.26 142.087 218.26 142.701C216.61 142.56 215.808 142.465 214.158 142.229C214.158 138.497 214.158 136.608 214.158 132.876L214.205 132.923Z" fill="white"/>
<path d="M222.833 134.907C222.692 134.671 222.551 134.482 222.315 134.293C222.079 134.152 221.843 134.057 221.608 134.057C221.466 134.057 221.325 134.057 221.183 134.152C221.042 134.199 220.9 134.293 220.806 134.388C220.712 134.482 220.617 134.624 220.523 134.813C220.429 135.002 220.429 135.191 220.429 135.427C220.429 135.663 220.429 135.852 220.523 135.994C220.57 136.136 220.664 136.277 220.806 136.419C220.9 136.514 221.042 136.608 221.23 136.702C221.372 136.797 221.56 136.891 221.749 136.939C221.985 137.033 222.173 137.175 222.409 137.317C222.645 137.458 222.833 137.647 223.069 137.836C223.258 138.072 223.446 138.356 223.541 138.686C223.682 139.017 223.729 139.442 223.729 139.962C223.729 140.529 223.682 141.001 223.541 141.426C223.399 141.851 223.211 142.182 223.022 142.418C222.786 142.702 222.551 142.843 222.22 142.985C221.938 143.079 221.608 143.127 221.277 143.127C220.853 143.127 220.382 142.938 219.957 142.701C219.533 142.418 219.203 142.04 218.92 141.568C219.25 141.143 219.439 140.907 219.769 140.434C219.957 140.765 220.146 141.048 220.429 141.284C220.712 141.473 220.995 141.615 221.23 141.615C221.372 141.615 221.513 141.615 221.655 141.568C221.796 141.568 221.938 141.426 222.032 141.332C222.173 141.19 222.268 141.048 222.315 140.859C222.409 140.67 222.409 140.434 222.409 140.151C222.409 139.867 222.409 139.678 222.268 139.489C222.173 139.3 222.079 139.159 221.938 139.017C221.796 138.875 221.655 138.781 221.419 138.686C221.23 138.592 221.042 138.497 220.806 138.356C220.617 138.261 220.382 138.12 220.193 138.025C220.004 137.883 219.816 137.694 219.627 137.505C219.486 137.269 219.344 137.033 219.25 136.702C219.156 136.372 219.109 135.994 219.109 135.522C219.109 135.002 219.203 134.577 219.344 134.199C219.486 133.821 219.674 133.538 219.91 133.301C220.146 133.065 220.382 132.876 220.712 132.735C220.995 132.593 221.325 132.546 221.608 132.498C221.938 132.498 222.315 132.546 222.645 132.687C222.975 132.829 223.305 133.112 223.541 133.443C223.211 134.01 223.069 134.246 222.786 134.813L222.833 134.907Z" fill="white"/>
<path d="M227.171 132.309C227.596 132.262 227.784 132.215 228.209 132.168C229.387 136.277 230 138.403 231.273 142.465C230.708 142.607 230.425 142.654 229.906 142.749C229.623 141.804 229.529 141.332 229.246 140.387C228.067 140.576 227.501 140.623 226.323 140.67C226.087 141.662 225.993 142.135 225.71 143.127C225.191 143.127 224.908 143.127 224.342 143.127C225.521 138.97 226.087 136.797 227.171 132.309ZM228.774 138.734C228.35 137.033 228.114 136.183 227.69 134.482C227.313 136.277 227.077 137.175 226.7 138.97C227.549 138.923 227.973 138.875 228.774 138.734Z" fill="white"/>
<path d="M236.507 132.404C236.319 132.073 236.13 131.884 235.847 131.79C235.564 131.695 235.328 131.695 235.045 131.79C234.715 131.884 234.433 132.121 234.15 132.404C233.867 132.687 233.631 133.065 233.442 133.49C233.254 133.916 233.112 134.388 233.018 134.907C232.924 135.427 232.877 135.947 232.877 136.514C232.877 137.128 232.971 137.647 233.065 138.12C233.159 138.592 233.348 138.97 233.537 139.253C233.725 139.537 233.961 139.773 234.244 139.867C234.527 139.962 234.81 139.962 235.14 139.867C235.47 139.726 235.753 139.489 236.036 139.159C236.271 138.828 236.507 138.45 236.649 137.978C237.026 138.261 237.167 138.403 237.544 138.686C237.309 139.395 236.979 140.009 236.601 140.529C236.224 141.048 235.753 141.379 235.234 141.568C234.763 141.757 234.291 141.757 233.867 141.568C233.442 141.426 233.065 141.143 232.735 140.718C232.405 140.292 232.169 139.773 231.981 139.112C231.792 138.45 231.698 137.694 231.651 136.844C231.651 135.994 231.698 135.144 231.886 134.435C232.075 133.679 232.311 133.018 232.594 132.451C232.877 131.884 233.254 131.365 233.678 130.987C234.102 130.609 234.574 130.326 235.045 130.137C235.234 130.042 235.47 130.042 235.706 129.995C235.941 129.995 236.13 129.995 236.366 130.042C236.554 130.089 236.743 130.184 236.931 130.326C237.12 130.467 237.262 130.656 237.403 130.892C237.073 131.506 236.931 131.79 236.601 132.404H236.507Z" fill="white"/>
<path d="M238.299 129.05C239.902 128.294 240.704 127.869 242.165 126.924C242.165 127.586 242.165 127.916 242.165 128.578C241.081 129.286 240.515 129.617 239.383 130.231C239.383 131.317 239.383 131.884 239.383 132.971C240.468 132.404 240.986 132.073 242.024 131.365C242.024 131.979 242.024 132.309 242.024 132.923C241.034 133.632 240.468 133.963 239.43 134.53C239.43 135.758 239.43 136.325 239.43 137.553C240.609 136.891 241.175 136.513 242.307 135.663V137.316C240.845 138.45 240.043 138.97 238.44 139.82C238.393 135.521 238.346 133.349 238.299 129.05Z" fill="white"/>
</g>
<defs>
<clipPath id="clip0_9_200">
<rect width="254" height="147" fill="white"/>
</clipPath>
</defs>
</svg>
